REM DIRINDEX 1\2,1\3,1\4,1\5
REM DIRNAME "folder01","folder02","folder03","folder04","folder05"
TITLE ""
FILE "1Q_j_2207-2220.mp3" MP3
  TRACK 01 AUDIO
    TITLE "0:"
    INDEX 01 00:00:00
  TRACK 02 AUDIO
    TITLE "3:cjc172_0322"
    INDEX 01 00:00:10
  TRACK 03 AUDIO
    TITLE "0:"
    INDEX 01 00:01:35
  TRACK 04 AUDIO
    TITLE "4:cjc172_0323"
    INDEX 01 00:01:43
  TRACK 05 AUDIO
    TITLE "0:"
    INDEX 01 00:04:63
  TRACK 06 AUDIO
    TITLE "5:cjc172_0324"
    INDEX 01 00:04:71
  TRACK 07 AUDIO
    TITLE "0:"
    INDEX 01 00:09:45
  TRACK 08 AUDIO
    TITLE "3:cjc172_0325"
    INDEX 01 00:10:19
  TRACK 09 AUDIO
    TITLE "0:"
    INDEX 01 00:12:04
  TRACK 10 AUDIO
    TITLE "4:cjc172_0326"
    INDEX 01 00:12:12
  TRACK 11 AUDIO
    TITLE "0:"
    INDEX 01 00:14:38
  TRACK 12 AUDIO
    TITLE "5:cjc172_0327"
    INDEX 01 00:14:44
  TRACK 13 AUDIO
    TITLE "0:"
    INDEX 01 00:19:06
  TRACK 14 AUDIO
    TITLE "3:cjc172_0328"
    INDEX 01 00:19:51
  TRACK 15 AUDIO
    TITLE "0:"
    INDEX 01 00:21:12
  TRACK 16 AUDIO
    TITLE "4:cjc172_0329"
    INDEX 01 00:21:18
  TRACK 17 AUDIO
    TITLE "0:"
    INDEX 01 00:23:27
  TRACK 18 AUDIO
    TITLE "5:cjc172_0330"
    INDEX 01 00:23:35
  TRACK 19 AUDIO
    TITLE "0:"
    INDEX 01 00:28:58
  TRACK 20 AUDIO
    TITLE "3:cjc172_0331"
    INDEX 01 00:29:28
  TRACK 21 AUDIO
    TITLE "0:"
    INDEX 01 00:30:56
  TRACK 22 AUDIO
    TITLE "4:cjc172_0332"
    INDEX 01 00:30:64
  TRACK 23 AUDIO
    TITLE "0:"
    INDEX 01 00:33:23
  TRACK 24 AUDIO
    TITLE "5:cjc172_0333"
    INDEX 01 00:33:31
  TRACK 25 AUDIO
    TITLE "0:"
    INDEX 01 00:38:46
  TRACK 26 AUDIO
    TITLE "3:cjc172_0334"
    INDEX 01 00:39:18
  TRACK 27 AUDIO
    TITLE "0:"
    INDEX 01 00:40:41
  TRACK 28 AUDIO
    TITLE "4:cjc172_0335"
    INDEX 01 00:40:49
  TRACK 29 AUDIO
    TITLE "0:"
    INDEX 01 00:42:50
  TRACK 30 AUDIO
    TITLE "5:cjc172_0336"
    INDEX 01 00:42:56
  TRACK 31 AUDIO
    TITLE "0:"
    INDEX 01 00:46:20
  TRACK 32 AUDIO
    TITLE "3:cjc172_0337"
    INDEX 01 00:46:63
  TRACK 33 AUDIO
    TITLE "0:"
    INDEX 01 00:48:07
  TRACK 34 AUDIO
    TITLE "4:cjc172_0338"
    INDEX 01 00:48:15
  TRACK 35 AUDIO
    TITLE "0:"
    INDEX 01 00:50:42
  TRACK 36 AUDIO
    TITLE "5:cjc172_0339"
    INDEX 01 00:50:49
  TRACK 37 AUDIO
    TITLE "0:"
    INDEX 01 00:57:40
  TRACK 38 AUDIO
    TITLE "3:cjc172_0340"
    INDEX 01 00:58:10
  TRACK 39 AUDIO
    TITLE "0:"
    INDEX 01 00:59:52
  TRACK 40 AUDIO
    TITLE "4:cjc172_0341"
    INDEX 01 00:59:64
  TRACK 41 AUDIO
    TITLE "0:"
    INDEX 01 01:03:07
  TRACK 42 AUDIO
    TITLE "5:cjc172_0342"
    INDEX 01 01:03:13
  TRACK 43 AUDIO
    TITLE "0:"
    INDEX 01 01:08:06
  TRACK 44 AUDIO
    TITLE "3:cjc172_0343"
    INDEX 01 01:08:55
  TRACK 45 AUDIO
    TITLE "0:"
    INDEX 01 01:10:15
  TRACK 46 AUDIO
    TITLE "4:cjc172_0344"
    INDEX 01 01:10:25
  TRACK 47 AUDIO
    TITLE "0:"
    INDEX 01 01:12:18
  TRACK 48 AUDIO
    TITLE "5:cjc172_0345"
    INDEX 01 01:12:25
  TRACK 49 AUDIO
    TITLE "0:"
    INDEX 01 01:17:72
  TRACK 50 AUDIO
    TITLE "3:cjc172_0346"
    INDEX 01 01:18:44
  TRACK 51 AUDIO
    TITLE "0:"
    INDEX 01 01:19:75
  TRACK 52 AUDIO
    TITLE "4:cjc172_0347"
    INDEX 01 01:20:11
  TRACK 53 AUDIO
    TITLE "0:"
    INDEX 01 01:21:21
  TRACK 54 AUDIO
    TITLE "5:cjc172_0348"
    INDEX 01 01:21:28
  TRACK 55 AUDIO
    TITLE "0:"
    INDEX 01 01:27:17
  TRACK 56 AUDIO
    TITLE "3:cjc172_0349"
    INDEX 01 01:27:62
  TRACK 57 AUDIO
    TITLE "0:"
    INDEX 01 01:29:20
  TRACK 58 AUDIO
    TITLE "4:cjc172_0350"
    INDEX 01 01:29:26
  TRACK 59 AUDIO
    TITLE "0:"
    INDEX 01 01:31:64
  TRACK 60 AUDIO
    TITLE "5:cjc172_0351"
    INDEX 01 01:31:72
  TRACK 61 AUDIO
    TITLE "0:"
    INDEX 01 01:37:39
  TRACK 62 AUDIO
    TITLE "3:cjc172_0352"
    INDEX 01 01:38:09
  TRACK 63 AUDIO
    TITLE "0:"
    INDEX 01 01:39:30
  TRACK 64 AUDIO
    TITLE "4:cjc172_0353"
    INDEX 01 01:39:38
  TRACK 65 AUDIO
    TITLE "0:"
    INDEX 01 01:42:21
  TRACK 66 AUDIO
    TITLE "5:cjc172_0354"
    INDEX 01 01:42:31
  TRACK 67 AUDIO
    TITLE "0:"
    INDEX 01 01:47:08
  TRACK 68 AUDIO
    TITLE "3:cjc172_0355"
    INDEX 01 01:47:55
  TRACK 69 AUDIO
    TITLE "0:"
    INDEX 01 01:48:74
  TRACK 70 AUDIO
    TITLE "4:cjc172_0356"
    INDEX 01 01:49:07
  TRACK 71 AUDIO
    TITLE "0:"
    INDEX 01 01:50:69
  TRACK 72 AUDIO
    TITLE "5:cjc172_0357"
    INDEX 01 01:51:02
  TRACK 73 AUDIO
    TITLE "0:"
    INDEX 01 01:57:71
  TRACK 74 AUDIO
    TITLE "3:cjc172_0358"
    INDEX 01 01:58:43
  TRACK 75 AUDIO
    TITLE "0:"
    INDEX 01 01:59:37
  TRACK 76 AUDIO
    TITLE "4:cjc172_0359"
    INDEX 01 01:59:54
  TRACK 77 AUDIO
    TITLE "0:"
    INDEX 01 02:01:71
  TRACK 78 AUDIO
    TITLE "5:cjc172_0360"
    INDEX 01 02:02:04
  TRACK 79 AUDIO
    TITLE "0:"
    INDEX 01 02:08:30
  TRACK 80 AUDIO
    TITLE "3:cjc172_0361"
    INDEX 01 02:08:75
  TRACK 81 AUDIO
    TITLE "0:"
    INDEX 01 02:10:15
  TRACK 82 AUDIO
    TITLE "4:cjc172_0362"
    INDEX 01 02:10:23
  TRACK 83 AUDIO
    TITLE "0:"
    INDEX 01 02:12:18
  TRACK 84 AUDIO
    TITLE "5:cjc172_0363"
    INDEX 01 02:12:26
  TRACK 85 AUDIO
    TITLE "0:"
    INDEX 01 02:16:43
